<svg width="31" height="29" xmlns="http://www.w3.org/2000/svg"><path d="M14.766 19.402l1.793-1.816c-1.383-.117-2.38-.574-3.094-1.29-1.98-1.98-1.98-4.78-.012-6.737l3.89-3.903c1.981-1.968 4.77-1.98 6.75 0 1.993 1.992 1.97 4.782.012 6.75l-1.992 1.98c.375.868.504 1.923.293 2.837l3.352-3.34c2.883-2.871 2.894-6.973-.012-9.88-2.918-2.917-6.996-2.894-9.879-.01L11.79 8.07c-2.883 2.883-2.894 6.973.012 9.88.68.69 1.617 1.206 2.965 1.452zm1.09-9.902l-1.793 1.816c1.382.13 2.378.575 3.093 1.29 1.992 1.98 1.98 4.78.012 6.75l-3.89 3.89c-1.981 1.98-4.77 1.98-6.739 0-1.992-1.992-1.98-4.77-.012-6.738l1.98-1.992a4.793 4.793 0 01-.292-2.836l-3.352 3.35c-2.883 2.871-2.894 6.961.012 9.867 2.918 2.918 6.996 2.895 9.879.024l4.078-4.09c2.883-2.883 2.895-6.973-.012-9.879-.68-.68-1.605-1.195-2.965-1.453z" fill="#162A40" fill-opacity=".55"/></svg>