<svg height="18" width="28" xmlns="http://www.w3.org/2000/svg"><path fill="#283240" fill-opacity=".55" d="M1.8 17h1c.6 0 1.1-.5 1.1-1.1v-1.4c1.2.1 2.6.1 4 .2v1.2c0 .6.5 1.1 1.1 1.1h1c.6 0 1.1-.5 1.1-1.1v-1.4c1.9.1 4.4.2 6.4.2 2.1 0 4.6-.1 6.4-.2v1.4c0 .6.5 1.1 1.1 1.1h1c.6 0 1.1-.5 1.1-1.1v-2.2c.3-.3.4-.8.4-1.3v-1.5c0-1.5-.3-2.3-1.1-3.3l-.4-1c-.3-1.5-.9-3.1-1.2-3.7-.5-1-1.4-1.6-2.5-1.7-.6-.2-2.4-.2-4.7-.2-1.5 0-2.8 0-3.7.1-.8-.1-2.1-.1-3.5-.1-2.2 0-4 .1-4.7.1-1.1.2-2.1.8-2.5 1.8-.3.6-.9 2.2-1.2 3.7l-.7.9C.5 8.5.2 9.3.2 10.8v1.3c0 .6.1 1.1.4 1.4v2.2c0 .8.5 1.3 1.2 1.3zm.8-4c-.7-.1-1-.5-1-1.1v-1.1c0-1.1.2-1.7.8-2.5l.9-1.2C3.5 6 4 4.3 4.4 3.5c.3-.6.8-.9 1.6-1 .6-.1 2.2-.1 4.5-.1h.4c-.1.2-.2.3-.3.5 0 .1-.1.2-.2.4-2.2 0-3.5.1-4.1.1-.6 0-.9.2-1.1.6-.3.4-.6 1.5-.8 2.3-.1.3.1.5.4.5 1-.1 2.6-.1 4.4-.2l-.7.9c-.8 1-1.1 1.8-1.1 3.3v1.5c0 .4.1.7.2.9-2.1 0-4.1-.1-5-.2zm15 .3c-2.9 0-6.5-.1-7.8-.3-.7-.1-1-.5-1-1.1v-1.1c0-1.1.2-1.7.8-2.5l.9-1.2c.2-1.1.7-2.9 1.1-3.6.3-.6.8-.9 1.5-1 .6-.1 2.2-.1 4.5-.1 2.2 0 3.9.1 4.4.1.8.1 1.3.4 1.6 1 .4.8.9 2.5 1.1 3.6l.9 1.2c.6.8.8 1.3.8 2.5v1.1c0 .6-.3 1-1 1.1-1.3.2-4.9.3-7.8.3zm-5.9-7c-.1.3.1.5.4.5 1.2-.1 2.8-.2 5.5-.2s4.3.1 5.5.2c.4 0 .5-.1.4-.5-.2-.8-.5-1.9-.8-2.3-.2-.4-.5-.6-1-.7-.6-.1-1.9-.1-4.2-.1-2.2 0-3.6.1-4.2.1-.5.1-.8.2-1 .7-.1.4-.5 1.5-.6 2.3zm-7.4 5.9c.8 0 1.4-.6 1.4-1.4 0-.8-.6-1.4-1.4-1.4-.8 0-1.4.6-1.4 1.4 0 .8.6 1.4 1.4 1.4zm7.2 0c.8 0 1.4-.6 1.4-1.4 0-.8-.6-1.4-1.4-1.4-.8 0-1.4.6-1.4 1.4 0 .8.6 1.4 1.4 1.4zm12.2 0c.8 0 1.4-.6 1.4-1.4 0-.8-.6-1.4-1.4-1.4-.8 0-1.4.6-1.4 1.4 0 .8.6 1.4 1.4 1.4zm-8.3-.3h4.5c.6 0 1-.4 1-1s-.4-1-1-1h-4.5c-.6 0-1 .4-1 1-.1.5.4 1 1 1z"/></svg>