<svg width="26" height="26" fill="none" xmlns="http://www.w3.org/2000/svg"><path d="M.815 17.175c0 1.303.24 2.474.72 3.512.48 1.046 1.132 1.87 1.955 2.471a4.58 4.58 0 002.793.913H7.96a9.223 9.223 0 01-2.224-3.115c-.522-1.196-.77-2.5-.74-3.91.006-.874.078-1.69.214-2.45.136-.766.347-1.503.634-2.212.293-.71.67-1.422 1.128-2.138H5.854c-.96 0-1.82.304-2.579.913-.759.609-1.36 1.436-1.804 2.482-.437 1.045-.656 2.223-.656 3.534zm6.07-.108c-.022 1.182.193 2.267.644 3.255a7.394 7.394 0 001.923 2.557c.838.723 1.83 1.285 2.976 1.686 1.153.401 2.427.606 3.824.613l1.58.01c.7.008 1.349-.014 1.943-.064a10.445 10.445 0 001.472-.193c.673-.158 1.207-.451 1.6-.881a2.21 2.21 0 00.591-1.547c0-.186-.017-.362-.053-.526a3.057 3.057 0 00-.13-.43c-.02-.05-.017-.093.012-.129.43-.265.752-.584.966-.956.222-.372.333-.777.333-1.214 0-.501-.11-.96-.333-1.375-.021-.036-.014-.075.022-.118.28-.222.501-.509.666-.86.165-.358.247-.74.247-1.149 0-.315-.04-.605-.118-.87a2.185 2.185 0 00-.323-.688c-.028-.064-.024-.107.011-.128.194-.194.337-.44.43-.742.093-.308.14-.62.14-.934 0-.723-.251-1.332-.752-1.826a2.426 2.426 0 00-1.794-.752h-4.136c-.401 0-.709-.083-.924-.247a.775.775 0 01-.322-.645c0-.358.1-.795.3-1.31.201-.516.43-1.071.688-1.666.265-.601.498-1.206.698-1.815.2-.616.301-1.2.301-1.75 0-.653-.2-1.186-.601-1.602-.401-.422-.913-.633-1.536-.633-.466 0-.867.136-1.204.408-.33.265-.659.709-.988 1.332a31.574 31.574 0 01-2.868 4.576 1516.19 1516.19 0 01-2.911 3.856 13.517 13.517 0 00-1.364 2.16 9.457 9.457 0 00-.763 2.159c-.158.745-.24 1.557-.247 2.438z" fill="#00B359"/></svg>