<svg height="18" width="20" xmlns="http://www.w3.org/2000/svg"><path fill="#283240" fill-opacity=".55" d="M16.6 6.9c.5 0 .8-.3.8-.7v-.1c0-.5.4-.8.9-1.2.9-.6 1.5-1.1 1.5-2.1 0-1.5-1.4-2.4-3-2.4-1.5 0-2.6.7-2.9 1.6-.1.2-.1.3-.1.5 0 .4.3.7.8.7s.6-.3.9-.6c.3-.5.7-.7 1.2-.7.7 0 1.2.4 1.2 1s-.4.8-1.1 1.4c-.6.4-1.1.9-1.1 1.7v.1c.1.6.4.8.9.8zM7.8 9.1c2 0 3.6-1.8 3.6-4S9.7 1.2 7.8 1.2c-2 0-3.7 1.7-3.6 3.9-.1 2.3 1.6 4 3.6 4zm8.8.6c.6 0 1.1-.4 1.1-1s-.5-1-1.1-1-1.1.4-1.1 1c.1.6.5 1 1.1 1zM2.1 17.5h11.2c1.5 0 2-.5 2-1.3 0-2.3-2.9-5.5-7.6-5.5C3 10.7.1 13.9.1 16.2c0 .8.5 1.3 2 1.3z"/></svg>