<svg width="18" height="18" xmlns="http://www.w3.org/2000/svg"><path d="M7.449 13.077a5.728 5.728 0 003.164-.952l3.208 3.215c.212.205.483.308.776.308.608 0 1.055-.476 1.055-1.077a1.05 1.05 0 00-.3-.754l-3.187-3.2a5.699 5.699 0 001.048-3.304c0-3.171-2.593-5.764-5.764-5.764-3.164 0-5.764 2.593-5.764 5.764 0 3.171 2.592 5.764 5.764 5.764zm0-1.538a4.242 4.242 0 01-4.226-4.226c0-2.314 1.904-4.226 4.226-4.226s4.226 1.912 4.226 4.226a4.242 4.242 0 01-4.226 4.226z" fill="#051B33" fill-opacity=".35"/></svg>