<svg width="19" height="18" xmlns="http://www.w3.org/2000/svg"><path d="M10.313 15.53c.402 0 .717-.153 1.105-.52l5.802-5.44c.286-.271.396-.586.396-.857 0-.278-.11-.586-.396-.857l-5.8-5.405c-.425-.396-.704-.557-1.092-.557-.586 0-1.003.454-1.003 1.025v2.608H9.14c-5.054 0-7.398 3.245-7.398 8.562 0 .93.396 1.414.908 1.414.389 0 .747-.125 1.033-.66 1.15-2.138 2.783-2.922 5.457-2.922h.183v2.622c0 .571.417.989.989.989zm.468-1.889c-.066 0-.11-.044-.11-.117V10.82c0-.168-.073-.241-.241-.241h-.938c-3.354 0-5.493 1.062-6.372 2.893-.022.044-.044.066-.073.066-.03 0-.051-.022-.051-.074.117-3.493 1.78-6.606 6.496-6.606h.938c.168 0 .241-.073.241-.242V3.85c0-.066.044-.11.11-.11a.18.18 0 01.125.058l5.002 4.776c.052.058.073.095.073.139 0 .044-.014.08-.073.14l-5.01 4.73c-.036.037-.08.06-.117.06z" fill="#162A40" fill-opacity=".55"/></svg>