<svg width="20" height="18" xmlns="http://www.w3.org/2000/svg"><path d="M9.229 11.752l1.12-1.136c-.864-.073-1.487-.359-1.933-.805-1.238-1.238-1.238-2.989-.008-4.212L10.84 3.16c1.238-1.23 2.98-1.238 4.219 0 1.245 1.245 1.23 2.988.007 4.219L13.82 8.617c.234.542.315 1.2.183 1.772l2.095-2.087c1.801-1.795 1.809-4.358-.008-6.175C14.268.304 11.72.318 9.917 2.12L7.368 4.67c-1.802 1.802-1.809 4.358.007 6.174.425.432 1.011.755 1.854.909zm.68-6.19L8.79 6.699c.864.08 1.487.359 1.934.805 1.245 1.238 1.237 2.989.007 4.22l-2.432 2.43c-1.237 1.239-2.98 1.239-4.211 0-1.245-1.244-1.238-2.98-.007-4.21l1.237-1.246a2.996 2.996 0 01-.183-1.772L3.04 9.02c-1.802 1.794-1.81 4.35.007 6.167 1.824 1.823 4.372 1.809 6.174.014l2.549-2.556c1.802-1.802 1.81-4.358-.007-6.174-.425-.425-1.004-.747-1.853-.909z" fill="#162A40" fill-opacity=".55"/></svg>