<svg width="17" height="17" xmlns="http://www.w3.org/2000/svg"><path d="M8.292 15.14c3.89 0 7.075-3.186 7.075-7.076 0-3.882-3.179-7.068-7.068-7.068-.424 0-.663.253-.663.663v2.516c0 .348.246.622.594.622.35 0 .595-.274.595-.622V2.418a5.642 5.642 0 015.12 5.646 5.635 5.635 0 01-5.653 5.66 5.635 5.635 0 01-5.653-5.66A5.646 5.646 0 013.91 4.503c.26-.356.3-.732.007-1.025-.294-.294-.766-.267-1.073.136a6.982 6.982 0 00-1.62 4.45c0 3.89 3.185 7.076 7.068 7.076zm1.1-5.968c.561-.588.445-1.395-.225-1.86L5.694 4.934c-.41-.28-.806.123-.533.533l2.386 3.466c.458.676 1.265.8 1.846.239z" fill="#EC3636"/></svg>