<svg width="13" height="8" viewBox="0 0 13 8" xmlns="http://www.w3.org/2000/svg">
<path d="M6.80664 7.82422C7.0459 7.81738 7.26465 7.72852 7.44238 7.53711L12.6377 2.21875C12.7881 2.06836 12.8701 1.87695 12.8701 1.65137C12.8701 1.2002 12.5146 0.837891 12.0635 0.837891C11.8447 0.837891 11.6328 0.926758 11.4756 1.08398L6.81348 5.87598L2.1377 1.08398C1.98047 0.933594 1.77539 0.837891 1.5498 0.837891C1.09863 0.837891 0.743164 1.2002 0.743164 1.65137C0.743164 1.87695 0.825195 2.06836 0.975586 2.21875L6.17773 7.53711C6.3623 7.72852 6.56738 7.82422 6.80664 7.82422Z" fill="#007AFF"/>
</svg>
