<svg width="20" height="20" viewBox="0 0 20 20" xmlns="http://www.w3.org/2000/svg">
<path d="M10 20C15.5228 20 20 15.5228 20 10C20 4.47715 15.5228 0 10 0C4.47715 0 0 4.47715 0 10C0 15.5228 4.47715 20 10 20Z" fill="#007AFF" fill-opacity="0.08"/>
<path d="M11.1901 10L7.77733 6.94673C7.40756 6.61591 7.40756 6.07893 7.77733 5.74811C8.14709 5.4173 8.74729 5.4173 9.11706 5.74811L13.2381 9.43505C13.5873 9.74749 13.5873 10.2533 13.2381 10.5649L9.11706 14.2519C8.74729 14.5827 8.14709 14.5827 7.77733 14.2519C7.40756 13.9211 7.40756 13.3841 7.77733 13.0533L11.1901 10Z" fill="#007AFF"/>
</svg>
