<svg width="31" height="29" viewBox="0 0 31 29" xmlns="http://www.w3.org/2000/svg">
<path d="M14.7656 19.4023L16.5586 17.5859C15.1758 17.4688 14.1797 17.0117 13.4648 16.2969C11.4844 14.3164 11.4844 11.5156 13.4531 9.55859L17.3438 5.65625C19.3242 3.6875 22.1133 3.67578 24.0938 5.65625C26.0859 7.64844 26.0625 10.4375 24.1055 12.4062L22.1133 14.3867C22.4883 15.2539 22.6172 16.3086 22.4062 17.2227L25.7578 13.8828C28.6406 11.0117 28.6523 6.91016 25.7461 4.00391C22.8281 1.08594 18.75 1.10938 15.8672 3.99219L11.7891 8.07031C8.90625 10.9531 8.89453 15.043 11.8008 17.9492C12.4805 18.6406 13.418 19.1562 14.7656 19.4023ZM15.8555 9.5L14.0625 11.3164C15.4453 11.4453 16.4414 11.8906 17.1562 12.6055C19.1484 14.5859 19.1367 17.3867 17.168 19.3555L13.2773 23.2461C11.2969 25.2266 8.50781 25.2266 6.53906 23.2461C4.54688 21.2539 4.55859 18.4766 6.52734 16.5078L8.50781 14.5156C8.13281 13.6602 8.01562 12.6055 8.21484 11.6797L4.86328 15.0312C1.98047 17.9023 1.96875 21.9922 4.875 24.8984C7.79297 27.8164 11.8711 27.793 14.7539 24.9219L18.832 20.832C21.7148 17.9492 21.7266 13.8594 18.8203 10.9531C18.1406 10.2734 17.2148 9.75781 15.8555 9.5Z" fill="#162A40" fill-opacity="0.55"/>
</svg>
