<svg height="18" width="28" xmlns="http://www.w3.org/2000/svg" viewBox="0 0 28 18">
	<path fill="#283240" fill-opacity="0.55" d="M1.8,17h1c0.6,0,1.1-0.5,1.1-1.1v-1.4c1.2,0.1,2.6,0.1,4,0.2v1.2C7.9,16.5,8.4,17,9,17h1c0.6,0,1.1-0.5,1.1-1.1v-1.4c1.9,0.1,4.4,0.2,6.4,0.2c2.1,0,4.6-0.1,6.4-0.2v1.4c0,0.6,0.5,1.1,1.1,1.1h1c0.6,0,1.1-0.5,1.1-1.1v-2.2c0.3-0.3,0.4-0.8,0.4-1.3v-1.5c0-1.5-0.3-2.3-1.1-3.3L26,6.6c-0.3-1.5-0.9-3.1-1.2-3.7c-0.5-1-1.4-1.6-2.5-1.7C21.7,1,19.9,1,17.6,1c-1.5,0-2.8,0-3.7,0.1C13.1,1,11.8,1,10.4,1c-2.2,0-4,0.1-4.7,0.1C4.6,1.3,3.6,1.9,3.2,2.9C2.9,3.5,2.3,5.1,2,6.6L1.3,7.5c-0.8,1-1.1,1.8-1.1,3.3v1.3c0,0.6,0.1,1.1,0.4,1.4v2.2C0.6,16.5,1.1,17,1.8,17z M2.6,13c-0.7-0.1-1-0.5-1-1.1v-1.1c0-1.1,0.2-1.7,0.8-2.5l0.9-1.2C3.5,6,4,4.3,4.4,3.5c0.3-0.6,0.8-0.9,1.6-1c0.6-0.1,2.2-0.1,4.5-0.1c0.1,0,0.3,0,0.4,0c-0.1,0.2-0.2,0.3-0.3,0.5c0,0.1-0.1,0.2-0.2,0.4c-2.2,0-3.5,0.1-4.1,0.1C5.7,3.4,5.4,3.6,5.2,4C4.9,4.4,4.6,5.5,4.4,6.3C4.3,6.6,4.5,6.8,4.8,6.8c1-0.1,2.6-0.1,4.4-0.2L8.5,7.5c-0.8,1-1.1,1.8-1.1,3.3v1.5c0,0.4,0.1,0.7,0.2,0.9C5.5,13.2,3.5,13.1,2.6,13z M17.6,13.3c-2.9,0-6.5-0.1-7.8-0.3c-0.7-0.1-1-0.5-1-1.1v-1.1c0-1.1,0.2-1.7,0.8-2.5l0.9-1.2c0.2-1.1,0.7-2.9,1.1-3.6c0.3-0.6,0.8-0.9,1.5-1c0.6-0.1,2.2-0.1,4.5-0.1c2.2,0,3.9,0.1,4.4,0.1c0.8,0.1,1.3,0.4,1.6,1C24,4.3,24.5,6,24.7,7.1l0.9,1.2c0.6,0.8,0.8,1.3,0.8,2.5v1.1c0,0.6-0.3,1-1,1.1C24.1,13.2,20.5,13.3,17.6,13.3z M11.7,6.3c-0.1,0.3,0.1,0.5,0.4,0.5c1.2-0.1,2.8-0.2,5.5-0.2s4.3,0.1,5.5,0.2c0.4,0,0.5-0.1,0.4-0.5c-0.2-0.8-0.5-1.9-0.8-2.3c-0.2-0.4-0.5-0.6-1-0.7c-0.6-0.1-1.9-0.1-4.2-0.1c-2.2,0-3.6,0.1-4.2,0.1c-0.5,0.1-0.8,0.2-1,0.7C12.2,4.4,11.8,5.5,11.7,6.3z M4.3,12.2c0.8,0,1.4-0.6,1.4-1.4c0-0.8-0.6-1.4-1.4-1.4c-0.8,0-1.4,0.6-1.4,1.4C2.9,11.6,3.5,12.2,4.3,12.2z M11.5,12.2c0.8,0,1.4-0.6,1.4-1.4c0-0.8-0.6-1.4-1.4-1.4c-0.8,0-1.4,0.6-1.4,1.4C10.1,11.6,10.7,12.2,11.5,12.2z M23.7,12.2c0.8,0,1.4-0.6,1.4-1.4c0-0.8-0.6-1.4-1.4-1.4c-0.8,0-1.4,0.6-1.4,1.4C22.3,11.6,22.9,12.2,23.7,12.2z M15.4,11.9h4.5c0.6,0,1-0.4,1-1c0-0.6-0.4-1-1-1h-4.5c-0.6,0-1,0.4-1,1C14.3,11.4,14.8,11.9,15.4,11.9z"/>
</svg>
