<svg width="26" height="26" viewBox="0 0 26 26" fill="none" xmlns="http://www.w3.org/2000/svg">
<path d="M0.81543 8.8252C0.81543 7.52181 1.05534 6.35091 1.53516 5.3125C2.01497 4.26693 2.66667 3.44336 3.49023 2.8418C4.3138 2.23307 5.24479 1.92871 6.2832 1.92871H7.95898C7.00651 2.80241 6.2653 3.84082 5.73535 5.04395C5.21257 6.23991 4.96549 7.54329 4.99414 8.9541C5.0013 9.8278 5.07292 10.6442 5.20898 11.4033C5.34505 12.1696 5.55632 12.9072 5.84277 13.6162C6.13639 14.3252 6.51237 15.0378 6.9707 15.7539H5.85352C4.89388 15.7539 4.03451 15.4495 3.27539 14.8408C2.51628 14.2321 1.91471 13.4049 1.4707 12.3594C1.03385 11.3138 0.81543 10.1357 0.81543 8.8252ZM6.88477 8.93262C6.86328 7.75098 7.07812 6.66602 7.5293 5.67773C7.98047 4.68945 8.62142 3.83724 9.45215 3.12109C10.29 2.39779 11.2819 1.83561 12.4277 1.43457C13.5807 1.03353 14.8555 0.829427 16.252 0.822266L17.8311 0.811523C18.5329 0.804362 19.181 0.825846 19.7754 0.875977C20.3698 0.918945 20.8604 0.983398 21.2471 1.06934C21.9202 1.22689 22.4538 1.52051 22.8477 1.9502C23.2415 2.37988 23.4385 2.89551 23.4385 3.49707C23.4385 3.68327 23.4206 3.85872 23.3848 4.02344C23.349 4.18099 23.306 4.32422 23.2559 4.45312C23.2344 4.50326 23.238 4.54622 23.2666 4.58203C23.6963 4.84701 24.0186 5.16569 24.2334 5.53809C24.4554 5.91048 24.5664 6.3151 24.5664 6.75195C24.5664 7.25326 24.4554 7.71159 24.2334 8.12695C24.2119 8.16276 24.2191 8.20215 24.2549 8.24512C24.5342 8.46712 24.7562 8.75358 24.9209 9.10449C25.0856 9.46257 25.168 9.8457 25.168 10.2539C25.168 10.569 25.1286 10.859 25.0498 11.124C24.971 11.3962 24.8636 11.6253 24.7275 11.8115C24.6989 11.876 24.7025 11.9189 24.7383 11.9404C24.9316 12.1338 25.0749 12.3809 25.168 12.6816C25.2611 12.9896 25.3076 13.3011 25.3076 13.6162C25.3076 14.3395 25.057 14.9482 24.5557 15.4424C24.0615 15.9437 23.4635 16.1943 22.7617 16.1943H18.626C18.2249 16.1943 17.917 16.2767 17.7021 16.4414C17.4873 16.6061 17.3799 16.821 17.3799 17.0859C17.3799 17.444 17.4801 17.8809 17.6807 18.3965C17.8812 18.9121 18.1104 19.4671 18.3682 20.0615C18.6331 20.6631 18.8659 21.2682 19.0664 21.877C19.2669 22.4928 19.3672 23.0765 19.3672 23.6279C19.3672 24.2796 19.1667 24.8132 18.7656 25.2285C18.3646 25.651 17.8525 25.8623 17.2295 25.8623C16.764 25.8623 16.363 25.7262 16.0264 25.4541C15.6969 25.1891 15.3675 24.7451 15.0381 24.1221C14.1787 22.4606 13.2227 20.9352 12.1699 19.5459C11.1243 18.1566 10.154 16.8711 9.25879 15.6895C8.69303 14.9447 8.23828 14.2249 7.89453 13.5303C7.55078 12.8356 7.29655 12.1159 7.13184 11.3711C6.97428 10.6263 6.89193 9.81348 6.88477 8.93262Z" fill="#EC3636"/>
</svg>
