<svg width="26" height="26" viewBox="0 0 26 26" fill="none" xmlns="http://www.w3.org/2000/svg">
<path d="M0.81543 17.1748C0.81543 18.4782 1.05534 19.6491 1.53516 20.6875C2.01497 21.7331 2.66667 22.5566 3.49023 23.1582C4.3138 23.7669 5.24479 24.0713 6.2832 24.0713H7.95898C7.00651 23.1976 6.2653 22.1592 5.73535 20.9561C5.21257 19.7601 4.96549 18.4567 4.99414 17.0459C5.0013 16.1722 5.07292 15.3558 5.20898 14.5967C5.34505 13.8304 5.55632 13.0928 5.84277 12.3838C6.13639 11.6748 6.51237 10.9622 6.9707 10.2461H5.85352C4.89388 10.2461 4.03451 10.5505 3.27539 11.1592C2.51628 11.7679 1.91471 12.5951 1.4707 13.6406C1.03385 14.6862 0.81543 15.8643 0.81543 17.1748ZM6.88477 17.0674C6.86328 18.249 7.07812 19.334 7.5293 20.3223C7.98047 21.3105 8.62142 22.1628 9.45215 22.8789C10.29 23.6022 11.2819 24.1644 12.4277 24.5654C13.5807 24.9665 14.8555 25.1706 16.252 25.1777L17.8311 25.1885C18.5329 25.1956 19.181 25.1742 19.7754 25.124C20.3698 25.0811 20.8604 25.0166 21.2471 24.9307C21.9202 24.7731 22.4538 24.4795 22.8477 24.0498C23.2415 23.6201 23.4385 23.1045 23.4385 22.5029C23.4385 22.3167 23.4206 22.1413 23.3848 21.9766C23.349 21.819 23.306 21.6758 23.2559 21.5469C23.2344 21.4967 23.238 21.4538 23.2666 21.418C23.6963 21.153 24.0186 20.8343 24.2334 20.4619C24.4554 20.0895 24.5664 19.6849 24.5664 19.248C24.5664 18.7467 24.4554 18.2884 24.2334 17.873C24.2119 17.8372 24.2191 17.7979 24.2549 17.7549C24.5342 17.5329 24.7562 17.2464 24.9209 16.8955C25.0856 16.5374 25.168 16.1543 25.168 15.7461C25.168 15.431 25.1286 15.141 25.0498 14.876C24.971 14.6038 24.8636 14.3747 24.7275 14.1885C24.6989 14.124 24.7025 14.0811 24.7383 14.0596C24.9316 13.8662 25.0749 13.6191 25.168 13.3184C25.2611 13.0104 25.3076 12.6989 25.3076 12.3838C25.3076 11.6605 25.057 11.0518 24.5557 10.5576C24.0615 10.0563 23.4635 9.80566 22.7617 9.80566H18.626C18.2249 9.80566 17.917 9.72331 17.7021 9.55859C17.4873 9.39388 17.3799 9.17904 17.3799 8.91406C17.3799 8.55599 17.4801 8.11914 17.6807 7.60352C17.8812 7.08789 18.1104 6.53288 18.3682 5.93848C18.6331 5.33691 18.8659 4.73177 19.0664 4.12305C19.2669 3.50716 19.3672 2.9235 19.3672 2.37207C19.3672 1.72038 19.1667 1.18685 18.7656 0.771484C18.3646 0.348958 17.8525 0.137695 17.2295 0.137695C16.764 0.137695 16.363 0.273763 16.0264 0.545898C15.6969 0.810872 15.3675 1.25488 15.0381 1.87793C14.1787 3.53939 13.2227 5.06478 12.1699 6.4541C11.1243 7.84342 10.154 9.12891 9.25879 10.3105C8.69303 11.0553 8.23828 11.7751 7.89453 12.4697C7.55078 13.1644 7.29655 13.8841 7.13184 14.6289C6.97428 15.3737 6.89193 16.1865 6.88477 17.0674Z" fill="#00B359"/>
</svg>
