<svg height="18" width="20" xmlns="http://www.w3.org/2000/svg" viewBox="0 0 20 18">
	<path fill="#283240" fill-opacity="0.55" d="M16.6,6.9c0.5,0,0.8-0.3,0.8-0.7c0,0,0-0.1,0-0.1c0-0.5,0.4-0.8,0.9-1.2c0.9-0.6,1.5-1.1,1.5-2.1c0-1.5-1.4-2.4-3-2.4c-1.5,0-2.6,0.7-2.9,1.6c-0.1,0.2-0.1,0.3-0.1,0.5c0,0.4,0.3,0.7,0.8,0.7c0.5,0,0.6-0.3,0.9-0.6c0.3-0.5,0.7-0.7,1.2-0.7c0.7,0,1.2,0.4,1.2,1c0,0.6-0.4,0.8-1.1,1.4c-0.6,0.4-1.1,0.9-1.1,1.7v0.1C15.8,6.7,16.1,6.9,16.6,6.9z M7.8,9.1c2,0,3.6-1.8,3.6-4c0-2.2-1.7-3.9-3.6-3.9c-2,0-3.7,1.7-3.6,3.9C4.1,7.4,5.8,9.1,7.8,9.1z M16.6,9.7c0.6,0,1.1-0.4,1.1-1c0-0.6-0.5-1-1.1-1s-1.1,0.4-1.1,1C15.6,9.3,16,9.7,16.6,9.7z M2.1,17.5h11.2c1.5,0,2-0.5,2-1.3c0-2.3-2.9-5.5-7.6-5.5c-4.7,0-7.6,3.2-7.6,5.5C0.1,17,0.6,17.5,2.1,17.5z"/>
</svg>
