<svg height="18" width="22" xmlns="http://www.w3.org/2000/svg" viewBox="0 0 22 18">
	<path fill="#283240" fill-opacity="0.55" d="M7.6,8.8c1.9,0,3.6-1.7,3.6-3.9C11.2,2.7,9.5,1,7.6,1C5.7,1,4,2.7,4,4.8C4,7.1,5.7,8.8,7.6,8.8z M16.9,9.3c0.3,0,0.6-0.2,0.8-0.4l4-6.2c0.1-0.2,0.2-0.4,0.2-0.6c0-0.4-0.4-0.7-0.8-0.7c-0.3,0-0.5,0.2-0.7,0.5l-3.5,5.6l-1.6-2.1C15,5.1,14.8,5,14.5,5c-0.4,0-0.8,0.4-0.8,0.8c0,0.2,0.1,0.4,0.2,0.6L16,8.9C16.3,9.2,16.5,9.3,16.9,9.3z M2.1,17h11c1.5,0,2-0.4,2-1.3c0-2.3-2.9-5.4-7.5-5.4c-4.6,0-7.5,3.1-7.5,5.4C0.1,16.6,0.6,17,2.1,17z" />
</svg>
