<svg width="18" height="18" viewBox="0 0 18 18" xmlns="http://www.w3.org/2000/svg">
<path d="M7.44873 13.0771C8.61328 13.0771 9.70459 12.7256 10.6128 12.125L13.8208 15.3403C14.0332 15.5454 14.3042 15.6479 14.5972 15.6479C15.2051 15.6479 15.6519 15.1719 15.6519 14.5713C15.6519 14.293 15.5566 14.022 15.3516 13.8169L12.1655 10.6162C12.8247 9.68604 13.2129 8.54346 13.2129 7.31299C13.2129 4.1416 10.6201 1.54883 7.44873 1.54883C4.28467 1.54883 1.68457 4.1416 1.68457 7.31299C1.68457 10.4844 4.27734 13.0771 7.44873 13.0771ZM7.44873 11.5391C5.12695 11.5391 3.22266 9.63477 3.22266 7.31299C3.22266 4.99854 5.12695 3.08691 7.44873 3.08691C9.77051 3.08691 11.6748 4.99854 11.6748 7.31299C11.6748 9.63477 9.77051 11.5391 7.44873 11.5391Z" fill="#051B33" fill-opacity="0.35"/>
</svg>
