<svg width="19" height="18" viewBox="0 0 19 18" xmlns="http://www.w3.org/2000/svg">
<path d="M10.3125 15.5308C10.7153 15.5308 11.0303 15.377 11.4185 15.0107L17.2192 9.56885C17.5049 9.29785 17.6147 8.98291 17.6147 8.71191C17.6147 8.43359 17.5049 8.12598 17.2192 7.85498L11.4185 2.44971C10.9937 2.0542 10.7153 1.89307 10.3271 1.89307C9.74121 1.89307 9.32373 2.34717 9.32373 2.91846V5.52588H9.14062C4.08691 5.52588 1.74316 8.77051 1.74316 14.0879C1.74316 15.0181 2.13867 15.5015 2.65137 15.5015C3.03955 15.5015 3.39844 15.377 3.68408 14.8423C4.83398 12.7036 6.46729 11.9199 9.14062 11.9199H9.32373V14.542C9.32373 15.1133 9.74121 15.5308 10.3125 15.5308ZM10.7812 13.6411C10.7153 13.6411 10.6714 13.5972 10.6714 13.5239V10.8213C10.6714 10.6528 10.5981 10.5796 10.4297 10.5796H9.49219C6.1377 10.5796 3.99902 11.6416 3.12012 13.4727C3.09814 13.5166 3.07617 13.5386 3.04688 13.5386C3.01758 13.5386 2.99561 13.5166 2.99561 13.4653C3.11279 9.97168 4.77539 6.85889 9.49219 6.85889H10.4297C10.5981 6.85889 10.6714 6.78564 10.6714 6.61719V3.84863C10.6714 3.78271 10.7153 3.73877 10.7812 3.73877C10.8252 3.73877 10.8691 3.76074 10.9058 3.79736L15.9082 8.57275C15.9595 8.63135 15.9814 8.66797 15.9814 8.71191C15.9814 8.75586 15.9668 8.79248 15.9082 8.85107L10.8984 13.5825C10.8618 13.6191 10.8179 13.6411 10.7812 13.6411Z" fill="#162A40" fill-opacity="0.55"/>
</svg>
