<svg width="20" height="18" viewBox="0 0 20 18" xmlns="http://www.w3.org/2000/svg">
<path d="M9.22852 11.7515L10.3491 10.6162C9.48486 10.543 8.8623 10.2573 8.41553 9.81055C7.17773 8.57275 7.17773 6.82227 8.4082 5.59912L10.8398 3.16016C12.0776 1.92969 13.8208 1.92236 15.0586 3.16016C16.3037 4.40527 16.2891 6.14844 15.0659 7.37891L13.8208 8.6167C14.0552 9.15869 14.1357 9.81787 14.0039 10.3892L16.0986 8.30176C17.9004 6.50732 17.9077 3.94385 16.0913 2.12744C14.2676 0.303711 11.7188 0.318359 9.91699 2.12012L7.36816 4.66895C5.56641 6.4707 5.55908 9.02686 7.37549 10.8433C7.80029 11.2754 8.38623 11.5977 9.22852 11.7515ZM9.90967 5.5625L8.78906 6.69775C9.65332 6.77832 10.2759 7.05664 10.7227 7.50342C11.9678 8.74121 11.9604 10.4917 10.73 11.7222L8.29834 14.1538C7.06055 15.3916 5.31738 15.3916 4.08691 14.1538C2.8418 12.9087 2.84912 11.1729 4.07959 9.94238L5.31738 8.69727C5.08301 8.1626 5.00977 7.50342 5.13428 6.9248L3.03955 9.01953C1.23779 10.814 1.23047 13.3701 3.04688 15.1865C4.87061 17.0103 7.41943 16.9956 9.22119 15.2012L11.77 12.645C13.5718 10.8433 13.5791 8.28711 11.7627 6.4707C11.3379 6.0459 10.7593 5.72363 9.90967 5.5625Z" fill="#162A40" fill-opacity="0.55"/>
</svg>
