<svg width="17" height="17" viewBox="0 0 17 17" xmlns="http://www.w3.org/2000/svg">
<path d="M8.29199 15.1396C12.1816 15.1396 15.3672 11.9541 15.3672 8.06445C15.3672 4.18164 12.1885 0.996094 8.29883 0.996094C7.875 0.996094 7.63574 1.24902 7.63574 1.65918V4.1748C7.63574 4.52344 7.88184 4.79688 8.23047 4.79688C8.5791 4.79688 8.8252 4.52344 8.8252 4.1748V2.41797C11.7168 2.68457 13.9453 5.10449 13.9453 8.06445C13.9453 11.2021 11.4365 13.7246 8.29199 13.7246C5.1543 13.7246 2.63184 11.2021 2.63867 8.06445C2.64551 6.71777 3.11719 5.4668 3.91016 4.50293C4.16992 4.14746 4.21094 3.77148 3.91699 3.47754C3.62305 3.18359 3.15137 3.21094 2.84375 3.61426C1.83887 4.83105 1.22363 6.38281 1.22363 8.06445C1.22363 11.9541 4.40918 15.1396 8.29199 15.1396ZM9.39258 9.17188C9.95312 8.58398 9.83691 7.77734 9.16699 7.3125L5.69434 4.93359C5.28418 4.65332 4.8877 5.05664 5.16113 5.4668L7.54688 8.93262C8.00488 9.60938 8.81152 9.73242 9.39258 9.17188Z" fill="#EC3636"/>
</svg>
